<?xml version="1.0"?>
<svg xmlns="http://www.w3.org/2000/svg" id="Capa_1" enable-background="new 0 0 512 512" height="512px" viewBox="0 0 512 512" width="512px"><g><g><path d="m470.05 173.341h-62.573v-66.313c0-28.691-23.147-52.034-51.599-52.034h-192.423c-4.143 0-7.5 3.357-7.5 7.5s3.357 7.5 7.5 7.5h192.423c20.181 0 36.599 16.613 36.599 37.034v179.025c0 20.42-16.418 37.033-36.599 37.033h-271.867c-2.366 0-4.593 1.116-6.009 3.012l-52.655 70.491c-2.235 2.995-5.188 2.42-6.355 2.031-.937-.31-3.992-1.635-3.992-5.615v-285.978c0-20.421 16.418-37.034 36.599-37.034h79.339c4.143 0 7.5-3.357 7.5-7.5s-3.357-7.5-7.5-7.5h-79.339c-28.452 0-51.599 23.343-51.599 52.034v285.978c0 9.183 5.6 16.975 14.265 19.852 2.211.733 4.451 1.09 6.654 1.089 6.365 0 12.409-2.972 16.447-8.383l50.403-67.477h102.671v17.383c0 23.313 18.818 42.278 41.95 42.278h35.999c4.143 0 7.5-3.357 7.5-7.5s-3.357-7.5-7.5-7.5h-35.999c-14.86 0-26.95-12.237-26.95-27.278v-17.383h150.438c28.451 0 51.599-23.342 51.599-52.033v-97.712h62.573c14.86 0 26.95 12.242 26.95 27.29v223.374c0 1.886-1.248 2.582-1.992 2.828-.868.288-2.113.347-3.128-1.017l-41.128-55.058c-1.416-1.896-3.643-3.012-6.009-3.012h-143.593c-4.143 0-7.5 3.357-7.5 7.5s3.357 7.5 7.5 7.5h139.834l38.873 52.04c3.474 4.66 8.674 7.22 14.152 7.22 1.894-.001 3.82-.307 5.72-.937 7.454-2.472 12.271-9.171 12.271-17.065v-223.373c0-23.318-18.818-42.29-41.95-42.29z" data-original="#000000" class="active-path" data-old_color="#000000" fill="#04D9D9"/><path d="m218.177 130.707h-139.872c-4.143 0-7.5 3.357-7.5 7.5s3.357 7.5 7.5 7.5h139.872c4.143 0 7.5-3.357 7.5-7.5s-3.358-7.5-7.5-7.5z" data-original="#000000" class="active-path" data-old_color="#000000" fill="#04D9D9"/><path d="m298.828 197.382c0-4.143-3.357-7.5-7.5-7.5h-213.023c-4.143 0-7.5 3.357-7.5 7.5s3.357 7.5 7.5 7.5h213.023c4.143 0 7.5-3.358 7.5-7.5z" data-original="#000000" class="active-path" data-old_color="#000000" fill="#04D9D9"/><path d="m78.305 249.058c-4.143 0-7.5 3.357-7.5 7.5s3.357 7.5 7.5 7.5h184.085c4.143 0 7.5-3.357 7.5-7.5s-3.357-7.5-7.5-7.5z" data-original="#000000" class="active-path" data-old_color="#000000" fill="#04D9D9"/></g></g> </svg>
